<mxfile host="app.diagrams.net" modified="2023-07-17T19:21:59.964Z" agent="Mozilla/5.0 (Windows NT 10.0; Win64; x64) AppleWebKit/537.36 (KHTML, like Gecko) Chrome/114.0.0.0 Safari/537.36" etag="5euPyHe9kRohrwLrLUnN" version="21.6.2" type="device">
  <diagram name="Page-1" id="l175bu-ffRH0cPE53PNz">
    <mxGraphModel dx="2082" dy="1057" grid="1" gridSize="10" guides="1" tooltips="1" connect="1" arrows="1" fold="1" page="1" pageScale="1" pageWidth="850" pageHeight="1100" math="0" shadow="0">
      <root>
        <mxCell id="0" />
        <mxCell id="1" parent="0" />
        <mxCell id="MlS34S4ReHzpso20yS75-1" value="" style="endArrow=none;html=1;rounded=0;strokeColor=#5b9bd5;strokeWidth=3;" parent="1" edge="1">
          <mxGeometry width="50" height="50" relative="1" as="geometry">
            <mxPoint x="-680" y="680" as="sourcePoint" />
            <mxPoint x="-680" y="120" as="targetPoint" />
          </mxGeometry>
        </mxCell>
        <mxCell id="MlS34S4ReHzpso20yS75-2" value="" style="endArrow=none;html=1;rounded=0;strokeColor=#5b9bd5;strokeWidth=3;" parent="1" edge="1">
          <mxGeometry width="50" height="50" relative="1" as="geometry">
            <mxPoint x="-200" y="680" as="sourcePoint" />
            <mxPoint x="-200" y="120" as="targetPoint" />
          </mxGeometry>
        </mxCell>
        <mxCell id="MlS34S4ReHzpso20yS75-3" value="Device" style="rounded=0;whiteSpace=wrap;html=1;" parent="1" vertex="1">
          <mxGeometry x="-720" y="90" width="80" height="30" as="geometry" />
        </mxCell>
        <mxCell id="MlS34S4ReHzpso20yS75-4" value="Cloud Service" style="rounded=0;whiteSpace=wrap;html=1;" parent="1" vertex="1">
          <mxGeometry x="-250" y="90" width="100" height="30" as="geometry" />
        </mxCell>
        <mxCell id="MlS34S4ReHzpso20yS75-5" value="TCP SYN" style="endArrow=classic;html=1;rounded=0;strokeColor=#5B9BD5;strokeWidth=3;spacing=2;spacingBottom=0;spacingRight=0;fontSize=18;labelBackgroundColor=#E6E6E6;" parent="1" edge="1">
          <mxGeometry width="50" height="50" relative="1" as="geometry">
            <mxPoint x="-680" y="160" as="sourcePoint" />
            <mxPoint x="-200" y="160" as="targetPoint" />
          </mxGeometry>
        </mxCell>
        <mxCell id="MlS34S4ReHzpso20yS75-6" value="TLS Client Hello" style="endArrow=classic;html=1;rounded=0;strokeColor=#5B9BD5;strokeWidth=3;labelBackgroundColor=#E6E6E6;fontSize=18;" parent="1" edge="1">
          <mxGeometry width="50" height="50" relative="1" as="geometry">
            <mxPoint x="-680" y="240" as="sourcePoint" />
            <mxPoint x="-200" y="240" as="targetPoint" />
          </mxGeometry>
        </mxCell>
        <mxCell id="MlS34S4ReHzpso20yS75-9" value="TCP SYN/ACK" style="endArrow=classic;html=1;rounded=0;strokeColor=#5B9BD5;strokeWidth=3;fontSize=18;labelBackgroundColor=#E6E6E6;" parent="1" edge="1">
          <mxGeometry width="50" height="50" relative="1" as="geometry">
            <mxPoint x="-200" y="200" as="sourcePoint" />
            <mxPoint x="-680" y="200" as="targetPoint" />
          </mxGeometry>
        </mxCell>
        <mxCell id="MlS34S4ReHzpso20yS75-10" value="TLS Server Hello" style="endArrow=classic;html=1;rounded=0;strokeColor=#5B9BD5;strokeWidth=3;fontSize=18;labelBackgroundColor=#E6E6E6;" parent="1" edge="1">
          <mxGeometry width="50" height="50" relative="1" as="geometry">
            <mxPoint x="-200" y="280" as="sourcePoint" />
            <mxPoint x="-680" y="280" as="targetPoint" />
          </mxGeometry>
        </mxCell>
        <mxCell id="MlS34S4ReHzpso20yS75-11" value="..." style="endArrow=classic;html=1;rounded=0;strokeColor=#5B9BD5;strokeWidth=3;fontSize=18;labelBackgroundColor=#E6E6E6;startArrow=classic;startFill=1;" parent="1" edge="1">
          <mxGeometry width="50" height="50" relative="1" as="geometry">
            <mxPoint x="-200" y="320" as="sourcePoint" />
            <mxPoint x="-680" y="320" as="targetPoint" />
          </mxGeometry>
        </mxCell>
        <mxCell id="MlS34S4ReHzpso20yS75-12" value="" style="endArrow=none;dashed=1;html=1;rounded=0;strokeColor=#FF0000;strokeWidth=3;" parent="1" edge="1">
          <mxGeometry width="50" height="50" relative="1" as="geometry">
            <mxPoint x="-740" y="340" as="sourcePoint" />
            <mxPoint x="-130" y="340" as="targetPoint" />
          </mxGeometry>
        </mxCell>
        <mxCell id="MlS34S4ReHzpso20yS75-13" value="&lt;div style=&quot;&quot;&gt;GET /xxx http/1.1&lt;/div&gt;&lt;div style=&quot;&quot;&gt;[Connection: upgrade, Upgrade: websocket,&amp;nbsp;&lt;/div&gt;&lt;div style=&quot;&quot;&gt;&lt;span style=&quot;background-color: initial; color: var(--code-token-tag); font-family: var(--font-code); font-size: var(--type-smaller-font-size);&quot;&gt;Sec-WebSocket-Protocol: h2c-reverse]&lt;/span&gt;&lt;/div&gt;" style="endArrow=classic;html=1;rounded=0;strokeColor=#5B9BD5;strokeWidth=3;labelBackgroundColor=#E6E6E6;fontSize=18;align=center;verticalAlign=top;spacingTop=-16;" parent="1" edge="1">
          <mxGeometry width="50" height="50" relative="1" as="geometry">
            <mxPoint x="-680" y="360" as="sourcePoint" />
            <mxPoint x="-200" y="360" as="targetPoint" />
          </mxGeometry>
        </mxCell>
        <mxCell id="MlS34S4ReHzpso20yS75-14" value="101" style="endArrow=classic;html=1;rounded=0;strokeColor=#5B9BD5;strokeWidth=3;fontSize=18;labelBackgroundColor=#E6E6E6;" parent="1" edge="1">
          <mxGeometry width="50" height="50" relative="1" as="geometry">
            <mxPoint x="-200" y="440" as="sourcePoint" />
            <mxPoint x="-680" y="440" as="targetPoint" />
          </mxGeometry>
        </mxCell>
        <mxCell id="MlS34S4ReHzpso20yS75-15" value="" style="endArrow=none;dashed=1;html=1;rounded=0;strokeColor=#FF0000;strokeWidth=3;" parent="1" edge="1">
          <mxGeometry width="50" height="50" relative="1" as="geometry">
            <mxPoint x="-740" y="460" as="sourcePoint" />
            <mxPoint x="-130" y="460" as="targetPoint" />
          </mxGeometry>
        </mxCell>
        <mxCell id="MlS34S4ReHzpso20yS75-16" value="PRI Magic" style="endArrow=classic;html=1;rounded=0;strokeColor=#5B9BD5;strokeWidth=3;fontSize=18;labelBackgroundColor=#E6E6E6;" parent="1" edge="1">
          <mxGeometry width="50" height="50" relative="1" as="geometry">
            <mxPoint x="-200" y="480" as="sourcePoint" />
            <mxPoint x="-680" y="480" as="targetPoint" />
          </mxGeometry>
        </mxCell>
        <mxCell id="MlS34S4ReHzpso20yS75-17" value="HTTP2 Settings" style="endArrow=classic;html=1;rounded=0;strokeColor=#5B9BD5;strokeWidth=3;fontSize=18;labelBackgroundColor=#E6E6E6;" parent="1" edge="1">
          <mxGeometry width="50" height="50" relative="1" as="geometry">
            <mxPoint x="-200" y="520" as="sourcePoint" />
            <mxPoint x="-680" y="520" as="targetPoint" />
          </mxGeometry>
        </mxCell>
        <mxCell id="MlS34S4ReHzpso20yS75-18" value="HTTP2 Settings" style="endArrow=classic;html=1;rounded=0;strokeColor=#5B9BD5;strokeWidth=3;labelBackgroundColor=#E6E6E6;fontSize=18;" parent="1" edge="1">
          <mxGeometry width="50" height="50" relative="1" as="geometry">
            <mxPoint x="-680" y="560" as="sourcePoint" />
            <mxPoint x="-200" y="560" as="targetPoint" />
          </mxGeometry>
        </mxCell>
        <mxCell id="MlS34S4ReHzpso20yS75-19" value="HTTP2 Response" style="endArrow=classic;html=1;rounded=0;strokeColor=#5B9BD5;strokeWidth=3;labelBackgroundColor=#E6E6E6;fontSize=18;" parent="1" edge="1">
          <mxGeometry width="50" height="50" relative="1" as="geometry">
            <mxPoint x="-680" y="640" as="sourcePoint" />
            <mxPoint x="-200" y="640" as="targetPoint" />
          </mxGeometry>
        </mxCell>
        <mxCell id="MlS34S4ReHzpso20yS75-20" value="HTTP2 POST" style="endArrow=classic;html=1;rounded=0;strokeColor=#5B9BD5;strokeWidth=3;fontSize=18;labelBackgroundColor=#E6E6E6;" parent="1" edge="1">
          <mxGeometry width="50" height="50" relative="1" as="geometry">
            <mxPoint x="-200" y="600" as="sourcePoint" />
            <mxPoint x="-680" y="600" as="targetPoint" />
          </mxGeometry>
        </mxCell>
        <mxCell id="-oY1Cqzi-837fpB3lFyp-2" value="WebSocket&lt;br&gt;framing&lt;br&gt;[RFC6455]" style="shape=curlyBracket;whiteSpace=wrap;html=1;rounded=1;flipH=1;labelPosition=right;verticalLabelPosition=middle;align=left;verticalAlign=middle;" vertex="1" parent="1">
          <mxGeometry x="-200" y="460" width="30" height="210" as="geometry" />
        </mxCell>
      </root>
    </mxGraphModel>
  </diagram>
</mxfile>
